<?xml version="1.0" encoding="UTF-8"?>
<svg id="b" data-name="Layer 2" xmlns="http://www.w3.org/2000/svg" viewBox="0 0 144.19 37.19">
  <g id="c" data-name="Layer 1">
    <path d="M7.97,22.73L0,.41h3.19l6.47,18.62L16.1.41h3.22l-8,22.32h-3.35ZM21.7,16.04c.54,2.87,2.81,4.5,5.77,4.5,2.2,0,3.79-1.02,4.59-2.33l2.36,1.34c-1.4,2.17-3.83,3.6-7.01,3.6-5.13,0-8.54-3.6-8.54-8.39s3.38-8.39,8.35-8.39,7.94,3.95,7.94,8.42c0,.41-.03.83-.1,1.24h-13.36ZM27.21,8.99c-3,0-5.07,1.85-5.52,4.62h10.65c-.48-3.16-2.74-4.62-5.13-4.62ZM41.12,9.47c1.02-2.23,2.97-2.97,4.97-2.97v2.9c-2.39-.1-4.97,1.12-4.97,4.88v8.45h-2.77V6.79h2.77v2.68ZM50.6,11.1c0,3.41,8.93,1.4,8.93,7.27,0,2.97-2.55,4.78-5.96,4.78-3.19,0-5.42-1.53-6.34-3.73l2.39-1.37c.51,1.53,1.98,2.49,3.95,2.49,1.69,0,3.16-.61,3.16-2.17,0-3.41-8.93-1.47-8.93-7.24,0-2.81,2.42-4.75,5.64-4.75,2.61,0,4.72,1.24,5.74,3.32l-2.33,1.31c-.61-1.43-2.01-2.04-3.41-2.04s-2.84.7-2.84,2.14ZM75.58,6.79h2.77v15.94h-2.77v-2.74c-1.28,1.94-3.32,3.16-6.03,3.16-4.43,0-8.07-3.67-8.07-8.39s3.63-8.39,8.07-8.39c2.71,0,4.75,1.21,6.03,3.16v-2.74ZM69.9,20.47c3.22,0,5.68-2.45,5.68-5.71s-2.46-5.71-5.68-5.71-5.64,2.46-5.64,5.71,2.46,5.71,5.64,5.71ZM93.21,23.15c-6.47,0-11.54-5.17-11.54-11.57S86.73,0,93.21,0s11.57,5.13,11.57,11.57-5.1,11.57-11.57,11.57ZM93.21,20.25c4.88,0,8.61-3.79,8.61-8.67s-3.73-8.7-8.61-8.7-8.61,3.79-8.61,8.7,3.73,8.67,8.61,8.67ZM122.21.41h2.97v22.32h-2.39l-11.48-16.68v16.68h-2.96V.41h2.39l11.48,16.64V.41ZM132.92,19.93h10.36v2.81h-13.33V.41h13.17v2.81h-10.2v6.86h9.41v2.77h-9.41v7.08Z" style="fill: #fff;"/>
    <path d="M3.31,37.19c-1.66,0-2.85-1.04-2.85-2.69v-5.04h1.01v5c0,1.05.63,1.75,1.84,1.75s1.84-.69,1.84-1.75v-5h1v5.04c0,1.65-1.18,2.69-2.84,2.69ZM11.57,31.49c1.27,0,2.1.85,2.1,2.23v3.33h-.94v-3.27c0-.89-.51-1.39-1.34-1.39s-1.57.51-1.57,1.79v2.87h-.94v-5.42h.94v.78c.4-.64,1-.92,1.76-.92ZM16.74,30.65c-.36,0-.64-.28-.64-.63s.28-.64.64-.64.63.29.63.64-.28.63-.63.63ZM16.27,37.05v-5.42h.94v5.42h-.94ZM23.72,31.63h1.02l-2.17,5.42h-1.11l-2.17-5.42h1.02l1.7,4.41,1.7-4.41ZM27.26,34.78c.18.98.95,1.53,1.96,1.53.75,0,1.29-.35,1.56-.79l.8.46c-.48.74-1.3,1.22-2.38,1.22-1.75,0-2.91-1.22-2.91-2.85s1.15-2.85,2.84-2.85,2.7,1.34,2.7,2.86c0,.14-.01.28-.03.42h-4.54ZM29.13,32.38c-1.02,0-1.72.63-1.88,1.57h3.62c-.16-1.07-.93-1.57-1.75-1.57ZM35.14,32.54c.35-.76,1.01-1.01,1.69-1.01v.99c-.81-.03-1.69.38-1.69,1.66v2.87h-.94v-5.42h.94v.91ZM39.64,33.1c0,1.16,3.04.48,3.04,2.47,0,1.01-.87,1.63-2.03,1.63-1.08,0-1.84-.52-2.16-1.27l.81-.47c.17.52.67.85,1.34.85.57,0,1.07-.21,1.07-.74,0-1.16-3.04-.5-3.04-2.46,0-.95.82-1.62,1.92-1.62.89,0,1.6.42,1.95,1.13l-.79.44c-.21-.49-.68-.69-1.16-.69s-.96.24-.96.73ZM49.4,31.63h.94v5.42h-.94v-.93c-.43.66-1.13,1.07-2.05,1.07-1.51,0-2.74-1.25-2.74-2.85s1.24-2.85,2.74-2.85c.92,0,1.62.41,2.05,1.07v-.93ZM47.47,36.28c1.09,0,1.93-.83,1.93-1.94s-.83-1.94-1.93-1.94-1.92.83-1.92,1.94.83,1.94,1.92,1.94ZM53.05,37.05v-7.91h.94v7.91h-.94ZM63.24,37.19c-1.44,0-2.47-.73-2.87-1.86l.87-.5c.27.83.92,1.38,2.03,1.38s1.6-.49,1.6-1.17c0-.78-.67-1.04-1.79-1.39-1.21-.39-2.38-.77-2.38-2.18s1.12-2.15,2.38-2.15,2.15.7,2.57,1.66l-.85.49c-.27-.65-.8-1.17-1.72-1.17-.81,0-1.38.43-1.38,1.13s.53.96,1.59,1.3c1.32.43,2.57.82,2.57,2.29,0,1.33-1.07,2.18-2.62,2.18ZM73.22,37.05l-.62-1.7h-3.41l-.62,1.7h-1.07l2.83-7.59h1.14l2.83,7.59h-1.07ZM69.53,34.41h2.72l-1.37-3.74-1.36,3.74ZM78.71,37.19c-1.44,0-2.47-.73-2.87-1.86l.87-.5c.27.83.92,1.38,2.03,1.38s1.6-.49,1.6-1.17c0-.78-.67-1.04-1.79-1.39-1.21-.39-2.39-.77-2.39-2.18s1.12-2.15,2.39-2.15,2.15.7,2.57,1.66l-.85.49c-.27-.65-.8-1.17-1.72-1.17-.81,0-1.38.43-1.38,1.13s.53.96,1.59,1.3c1.32.43,2.57.82,2.57,2.29,0,1.33-1.07,2.18-2.62,2.18ZM84.76,36.1h3.52v.95h-4.53v-7.59h4.48v.95h-3.47v2.33h3.2v.94h-3.2v2.41ZM97.51,29.46c1.4,0,2.45,1.05,2.45,2.44s-1.05,2.44-2.45,2.44h-1.75v2.71h-1.01v-7.59h2.75ZM97.51,33.4c.83,0,1.45-.64,1.45-1.5s-.62-1.5-1.45-1.5h-1.75v2.99h1.75ZM102.33,37.05v-7.91h.94v7.91h-.94ZM110.47,31.63h.94v5.42h-.94v-.93c-.43.66-1.13,1.07-2.05,1.07-1.51,0-2.74-1.25-2.74-2.85s1.24-2.85,2.74-2.85c.92,0,1.61.41,2.05,1.07v-.93ZM108.54,36.28c1.1,0,1.93-.83,1.93-1.94s-.83-1.94-1.93-1.94-1.92.83-1.92,1.94.83,1.94,1.92,1.94ZM117.07,32.54h-1.44v2.94c0,.82.48.77,1.44.73v.85c-1.63.22-2.39-.22-2.39-1.57v-2.94h-1.07v-.91h1.07v-1.24l.94-.28v1.52h1.44v.91ZM121.97,30.23c-.94-.08-1.43.29-1.43,1.24v.16h1.43v.91h-1.43v4.51h-.94v-4.51h-.87v-.91h.87v-.16c0-1.44.82-2.25,2.37-2.15v.91ZM126.22,37.19c-1.58,0-2.85-1.25-2.85-2.85s1.27-2.85,2.85-2.85,2.86,1.25,2.86,2.85-1.28,2.85-2.86,2.85ZM126.22,36.27c1.08,0,1.92-.83,1.92-1.93s-.83-1.93-1.92-1.93-1.91.83-1.91,1.93.83,1.93,1.91,1.93ZM132.41,32.54c.35-.76,1.01-1.01,1.69-1.01v.99c-.81-.03-1.69.38-1.69,1.66v2.87h-.94v-5.42h.94v.91ZM142.15,31.49c1.2,0,2.04.83,2.04,2.19v3.37h-.94v-3.34c0-.86-.48-1.32-1.19-1.32-.76,0-1.33.48-1.33,1.65v3.01h-.94v-3.34c0-.86-.44-1.32-1.15-1.32s-1.39.48-1.39,1.65v3.01h-.94v-5.42h.94v.73c.39-.61.95-.87,1.62-.87.74,0,1.28.34,1.59.92.38-.62,1-.92,1.7-.92Z" style="fill: #fff;"/>
  </g>
</svg>